<?xml version="1.0" standalone="no"?>
<!DOCTYPE svg PUBLIC "-//W3C//DTD SVG 20010904//EN"
 "http://www.w3.org/TR/2001/REC-SVG-20010904/DTD/svg10.dtd">
<svg version="1.0" xmlns="http://www.w3.org/2000/svg"
 width="728.000000pt" height="728.000000pt" viewBox="0 0 728.000000 728.000000"
 preserveAspectRatio="xMidYMid meet">
<metadata>
Created by potrace 1.14, written by Peter Selinger 2001-2017
</metadata>
<g transform="translate(0.000000,728.000000) scale(0.100000,-0.100000)"
fill="#000000" stroke="none">
<path d="M4628 7029 c-205 -30 -419 -151 -560 -316 -51 -59 -137 -198 -138
-220 0 -7 -3 -13 -7 -13 -5 0 -622 23 -1373 51 -1104 42 -1375 50 -1420 41
-231 -49 -393 -279 -360 -511 5 -35 24 -96 44 -137 46 -98 113 -164 213 -212
72 -34 83 -36 192 -39 64 -2 315 4 559 14 243 10 442 16 442 13 -1 -3 -33 -27
-72 -55 -107 -76 -277 -225 -362 -318 -385 -422 -603 -899 -667 -1456 -18
-157 -7 -524 20 -676 45 -252 111 -456 220 -680 178 -368 424 -671 734 -905
l77 -59 -587 -3 -588 -3 -57 -28 c-144 -70 -212 -237 -158 -381 28 -74 94
-147 158 -174 26 -11 659 -178 1407 -372 1259 -326 1364 -352 1422 -347 119 9
225 83 280 195 27 55 28 64 31 234 l4 178 36 -5 c20 -3 449 -49 952 -101 1022
-107 1044 -108 1150 -58 95 45 172 120 217 212 38 75 38 77 38 196 0 115 -2
124 -32 188 -53 113 -137 189 -266 241 -50 21 -70 22 -574 27 l-523 5 93 70
c111 84 328 299 417 413 238 304 419 690 493 1047 43 204 52 298 51 535 0 243
-12 360 -61 565 -76 325 -235 664 -435 929 l-68 91 400 3 400 2 0 115 0 114
-872 3 -873 3 -65 23 c-286 103 -461 331 -477 622 -18 330 209 627 539 705 53
12 194 15 906 15 l842 0 0 115 0 115 -842 -1 c-464 -1 -869 -5 -900 -10z
m-2108 -724 c668 -25 1242 -48 1275 -51 l60 -5 0 -125 0 -124 -30 -4 c-39 -6
-2485 -97 -2589 -96 -65 0 -86 4 -127 26 -128 70 -157 233 -60 345 48 57 99
78 186 79 39 0 617 -20 1285 -45z m1414 -557 c12 -48 113 -195 180 -263 118
-119 261 -202 424 -247 69 -19 109 -22 400 -26 l322 -4 96 -111 c527 -613 691
-1440 438 -2207 -55 -165 -168 -399 -261 -540 -208 -315 -468 -555 -808 -749
l-89 -51 -1010 0 -1009 0 -86 46 c-565 306 -986 858 -1134 1489 -44 188 -59
316 -60 515 -2 381 78 716 248 1049 226 441 576 786 1025 1009 125 61 141 67
210 70 153 7 977 39 1041 41 61 1 67 -1 73 -21z m2209 -4461 c170 -100 137
-354 -52 -403 -41 -10 -167 1 -1086 97 -572 60 -1052 107 -1066 104 -14 -3
-39 -20 -55 -36 l-29 -30 -5 -244 -5 -245 -26 -26 c-16 -16 -41 -27 -65 -30
-29 -3 -378 83 -1384 345 -1436 373 -1380 356 -1380 418 0 14 13 37 29 54 l30
29 2523 -2 2523 -3 48 -28z"/>
<path d="M3454 5200 c-251 -27 -506 -120 -729 -267 -132 -87 -336 -291 -424
-423 -325 -487 -369 -1075 -120 -1596 183 -384 527 -690 927 -824 191 -64 265
-75 512 -75 199 0 237 3 328 23 576 129 1011 519 1196 1073 92 274 102 633 26
909 -49 177 -140 371 -243 517 -81 115 -258 291 -377 375 -314 223 -715 328
-1096 288z m436 -245 c566 -123 986 -555 1087 -1118 22 -124 22 -344 -1 -462
-41 -215 -133 -430 -250 -586 -125 -166 -313 -323 -494 -413 -99 -50 -256
-101 -372 -122 -138 -26 -364 -23 -497 5 -562 118 -968 524 -1090 1091 -25
116 -25 389 0 512 115 574 568 1011 1142 1103 114 18 369 13 475 -10z"/>
<path d="M5000 6355 l0 -115 685 0 685 0 0 115 0 115 -685 0 -685 0 0 -115z"/>
<path d="M5000 5895 l0 -115 685 0 685 0 0 115 0 115 -685 0 -685 0 0 -115z"/>
</g>
</svg>
